HIERARCHY
ROOT hip
{
  OFFSET 0 0 0
  CHANNELS 6 Xposition Yposition Zposition Zrotation Yrotation Xrotation
  JOINT abdomen
  {
    OFFSET 0 20.6881 -0.73152
    CHANNELS 3 Zrotation Xrotation Yrotation
    JOINT chest
    {
      OFFSET 0 11.7043 -0.48768
      CHANNELS 3 Zrotation Xrotation Yrotation
      JOINT neck
      {
        OFFSET 0 22.1894 -2.19456
        CHANNELS 3 Zrotation Xrotation Yrotation
        JOINT head
        {
          OFFSET -0.24384 7.07133 1.2192
          CHANNELS 3 Zrotation Xrotation Yrotation
          JOINT leftEye
          {
            OFFSET 4.14528 8.04674 8.04672
            CHANNELS 3 Zrotation Xrotation Yrotation
            End Site
            {
              OFFSET 1 0 0
            }
          }
          JOINT rightEye
          {
            OFFSET -3.6576 8.04674 8.04672
            CHANNELS 3 Zrotation Xrotation Yrotation
            End Site
            {
              OFFSET 1 0 0
            }
          }
        }
      }
      JOINT rCollar
      {
        OFFSET -2.68224 19.2634 -4.8768
        CHANNELS 3 Zrotation Xrotation Yrotation
        JOINT rShldr
        {
          OFFSET -8.77824 -1.95073 1.46304
          CHANNELS 3 Zrotation Xrotation Yrotation
          JOINT rForeArm
          {
            OFFSET -28.1742 -1.7115 0.48768
            CHANNELS 3 Zrotation Xrotation Yrotation
            JOINT rHand
            {
              OFFSET -22.5879 0.773209 7.07136
              CHANNELS 3 Zrotation Xrotation Yrotation
              JOINT rThumb1
              {
                OFFSET -1.2192 -0.487915 3.41376
                CHANNELS 3 Zrotation Xrotation Yrotation
                JOINT rThumb2
                {
                  OFFSET -3.37035 -0.52449 3.41376
                  CHANNELS 3 Zrotation Xrotation Yrotation
                  End Site
                  {
                    OFFSET -1.78271 -1.18214 1.43049
                  }
                }
              }
              JOINT rIndex1
              {
                OFFSET -7.75947 0.938293 5.60832
                CHANNELS 3 Zrotation Xrotation Yrotation
                JOINT rIndex2
                {
                  OFFSET -2.54057 -0.884171 1.56538
                  CHANNELS 3 Zrotation Xrotation Yrotation
                  End Site
                  {
                    OFFSET -1.62519 -0.234802 1.16502
                  }
                }
              }
              JOINT rMid1
              {
                OFFSET -8.24714 1.18213 3.41376
                CHANNELS 3 Zrotation Xrotation Yrotation
                JOINT rMid2
                {
                  OFFSET -3.10165 -0.590103 1.0647
                  CHANNELS 3 Zrotation Xrotation Yrotation
                  End Site
                  {
                    OFFSET -2.48547 -0.328903 0.83742
                  }
                }
              }
              JOINT rRing1
              {
                OFFSET -8.82822 0.546677 1.51678
                CHANNELS 3 Zrotation Xrotation Yrotation
                JOINT rRing2
                {
                  OFFSET -2.60934 -0.819778 -0.0198488
                  CHANNELS 3 Zrotation Xrotation Yrotation
                  End Site
                  {
                    OFFSET -2.33842 -0.294052 0.168128
                  }
                }
              }
              JOINT rPinky1
              {
                OFFSET -8.27202 -0.0477905 -0.4584
                CHANNELS 3 Zrotation Xrotation Yrotation
                JOINT rPinky2
                {
                  OFFSET -1.82734 -0.647385 -0.700984
                  CHANNELS 3 Zrotation Xrotation Yrotation
                  End Site
                  {
                    OFFSET -1.69225 -0.51767 -0.607171
                  }
                }
              }
            }
          }
        }
      }
      JOINT lCollar
      {
        OFFSET 2.68224 19.2634 -4.8768
        CHANNELS 3 Zrotation Xrotation Yrotation
        JOINT lShldr
        {
          OFFSET 8.77824 -1.95073 1.46304
          CHANNELS 3 Zrotation Xrotation Yrotation
          JOINT lForeArm
          {
            OFFSET 28.1742 -1.7115 0.48768
            CHANNELS 3 Zrotation Xrotation Yrotation
            JOINT lHand
            {
              OFFSET 22.5879 0.773209 7.07136
              CHANNELS 3 Zrotation Xrotation Yrotation
              JOINT lThumb1
              {
                OFFSET 1.2192 -0.487915 3.41376
                CHANNELS 3 Zrotation Xrotation Yrotation
                JOINT lThumb2
                {
                  OFFSET 3.37035 -0.52449 3.41376
                  CHANNELS 3 Zrotation Xrotation Yrotation
                  End Site
                  {
                    OFFSET 1.78271 -1.18214 1.43049
                  }
                }
              }
              JOINT lIndex1
              {
                OFFSET 7.75947 0.938293 5.60832
                CHANNELS 3 Zrotation Xrotation Yrotation
                JOINT lIndex2
                {
                  OFFSET 2.54057 -0.884171 1.56538
                  CHANNELS 3 Zrotation Xrotation Yrotation
                  End Site
                  {
                    OFFSET 1.62519 -0.234802 1.16502
                  }
                }
              }
              JOINT lMid1
              {
                OFFSET 8.24714 1.18213 3.41376
                CHANNELS 3 Zrotation Xrotation Yrotation
                JOINT lMid2
                {
                  OFFSET 3.10165 -0.590103 1.0647
                  CHANNELS 3 Zrotation Xrotation Yrotation
                  End Site
                  {
                    OFFSET 2.48547 -0.328903 0.83742
                  }
                }
              }
              JOINT lRing1
              {
                OFFSET 8.82822 0.546677 1.51678
                CHANNELS 3 Zrotation Xrotation Yrotation
                JOINT lRing2
                {
                  OFFSET 2.60934 -0.819778 -0.0198488
                  CHANNELS 3 Zrotation Xrotation Yrotation
                  End Site
                  {
                    OFFSET 2.33842 -0.294052 0.168128
                  }
                }
              }
              JOINT lPinky1
              {
                OFFSET 8.27202 -0.0477905 -0.4584
                CHANNELS 3 Zrotation Xrotation Yrotation
                JOINT lPinky2
                {
                  OFFSET 1.82734 -0.647385 -0.700984
                  CHANNELS 3 Zrotation Xrotation Yrotation
                  End Site
                  {
                    OFFSET 1.69225 -0.51767 -0.607171
                  }
                }
              }
            }
          }
        }
      }
    }
  }
  JOINT rButtock
  {
    OFFSET -8.77824 4.35084 1.2192
    CHANNELS 3 Zrotation Xrotation Yrotation
    JOINT rThigh
    {
      OFFSET 0 -1.70687 -2.19456
      CHANNELS 3 Zrotation Xrotation Yrotation
      JOINT rShin
      {
        OFFSET 0 -36.8199 0.73152
        CHANNELS 3 Zrotation Xrotation Yrotation
        JOINT rFoot
        {
          OFFSET 0.73152 -45.1104 -5.12064
          CHANNELS 3 Zrotation Xrotation Yrotation
          End Site
          {
            OFFSET -1.1221 -3.69964 12.103
          }
        }
      }
    }
  }
  JOINT lButtock
  {
    OFFSET 8.77824 4.35084 1.2192
    CHANNELS 3 Zrotation Xrotation Yrotation
    JOINT lThigh
    {
      OFFSET 0 -1.70687 -2.19456
      CHANNELS 3 Zrotation Xrotation Yrotation
      JOINT lShin
      {
        OFFSET 0 -36.8199 0.73152
        CHANNELS 3 Zrotation Xrotation Yrotation
        JOINT lFoot
        {
          OFFSET -0.73152 -45.1104 -5.12064
          CHANNELS 3 Zrotation Xrotation Yrotation
          End Site
          {
            OFFSET 1.1221 -3.69964 12.103
          }
        }
      }
    }
  }
}
MOTION
Frames:	4
Frame Time:	0.00833333
-117.713 81.5798 57.6573 -177.129 3.315 180.346 -1.90092 13.3977 4.6781 1.12691 -2.50851 1.38037 -2.28762 9.74699 4.05828 -12.2926 -3.49704 4.74357 -0.0 0.0 0.0 -0.0 0.0 0.0 5.39211e-14 -1.18015e-13 3.82971e-14 67.3484 -17.0228 -12.7088 -15.0638 -7.84868 27.7224 -0.00557522 1.70938 0.240205 6.78478e-10 -1.15053e-09 1.05673e-09 1.17644e-09 -1.99046e-09 1.82476e-09 6.78478e-10 -1.15053e-09 1.05672e-09 7.73091 5.47488 0.417314 6.78476e-10 -1.15053e-09 1.05674e-09 2.90554 0.965183 0.102902 6.78483e-10 -1.15053e-09 1.05673e-09 10.2786 0.731801 0.0259123 6.78476e-10 -1.15053e-09 1.05674e-09 2.22167 -0.733487 -0.20892 5.37679e-14 -1.18017e-13 3.78898e-14 -43.466 -21.7583 1.91536 19.5427 -12.4484 -37.5784 0.541824 -20.3863 2.99523 -8.32302e-10 -5.0565e-10 4.77696e-10 -1.44651e-09 -8.72394e-10 8.13054e-10 -8.32325e-10 -5.05657e-10 4.77716e-10 -7.73091 5.47488 -0.417314 -8.32307e-10 -5.0566e-10 4.77691e-10 -2.90554 0.965183 -0.102902 -8.32308e-10 -5.05662e-10 4.77696e-10 -10.2786 0.731801 -0.0259123 -8.32293e-10 -5.05659e-10 4.77694e-10 -2.22167 -0.733487 0.20892 -2.03217e-16 0.0 -3.88251e-19 -11.1133 -19.3207 -2.96074 -0.242361 36.7989 1.01628 -9.47813 -13.5317 -26.0047 2.03217e-16 0.0 3.88251e-19 2.35974 -10.3207 6.026 -0.0369534 27.0729 -0.580967 1.03602 -14.8538 3.61246
-118.048 81.6244 57.9491 -177.09 0.2055 181.037 -1.85642 13.6018 4.20563 1.32113 -2.93787 1.22184 -1.93636 10.6717 3.96437 -13.096 -4.26748 4.48389 -0.0 0.0 0.0 -0.0 0.0 0.0 7.56181e-14 -1.33582e-13 8.94531e-15 68.007 -17.2496 -12.4248 -14.3053 -7.20339 26.1703 -0.00693246 2.37663 0.334207 7.74691e-10 -1.60819e-09 1.07489e-09 1.34401e-09 -2.78269e-09 1.85548e-09 7.7469e-10 -1.60818e-09 1.07488e-09 7.73091 5.47488 0.417314 7.74689e-10 -1.60819e-09 1.0749e-09 2.90554 0.965183 0.102902 7.74696e-10 -1.60819e-09 1.07489e-09 10.2786 0.731801 0.0259123 7.74689e-10 -1.60819e-09 1.0749e-09 2.22167 -0.733487 -0.20892 7.54633e-14 -1.33585e-13 8.54774e-15 -43.4884 -21.6293 1.92174 19.837 -12.8081 -38.2857 0.587264 -21.2396 3.13128 -1.06778e-09 -5.87525e-10 4.67774e-10 -1.8535e-09 -1.0123e-09 7.9211e-10 -1.06781e-09 -5.87531e-10 4.67793e-10 -7.73091 5.47488 -0.417314 -1.06779e-09 -5.87535e-10 4.67767e-10 -2.90554 0.965183 -0.102902 -1.06779e-09 -5.87537e-10 4.67772e-10 -10.2786 0.731801 -0.0259123 -1.06777e-09 -5.87534e-10 4.67771e-10 -2.22167 -0.733487 0.20892 -2.03217e-16 0.0 -3.88251e-19 -10.9151 -19.7348 -2.37461 -0.267707 38.0485 1.01633 -8.68271 -13.1656 -24.3475 2.03217e-16 0.0 3.88251e-19 2.2503 -10.3801 5.90791 -0.0382102 27.1473 -0.574606 0.671648 -14.8487 2.29751
-118.301 81.596 57.8485 -177.183 -0.1328 181.348 -1.9673 13.8844 3.97584 1.34635 -3.35556 1.077 -2.23094 10.3682 3.76612 -12.5511 -3.47282 4.17594 -0.0 0.0 0.0 -0.0 0.0 0.0 7.39326e-14 -1.18835e-13 3.01454e-14 68.8553 -17.7318 -12.1061 -13.6222 -6.63803 24.8348 -0.0122386 3.08907 0.434579 6.81877e-10 -1.20903e-09 1.11491e-09 1.18408e-09 -2.0916e-09 1.92519e-09 6.81876e-10 -1.20902e-09 1.1149e-09 7.73091 5.47488 0.417314 6.81876e-10 -1.20902e-09 1.11492e-09 2.90554 0.965183 0.102902 6.81882e-10 -1.20903e-09 1.11491e-09 10.2786 0.731801 0.0259123 6.81876e-10 -1.20903e-09 1.11492e-09 2.22167 -0.733487 -0.20892 7.37911e-14 -1.18838e-13 2.97948e-14 -43.4658 -21.395 1.73921 20.1266 -13.1727 -38.9844 0.666301 -22.6555 3.35979 -8.78276e-10 -4.87525e-10 4.29223e-10 -1.52587e-09 -8.40559e-10 7.29345e-10 -8.78299e-10 -4.87529e-10 4.29239e-10 -7.73091 5.47488 -0.417314 -8.78281e-10 -4.87532e-10 4.29218e-10 -2.90554 0.965183 -0.102902 -8.78283e-10 -4.87534e-10 4.29222e-10 -10.2786 0.731801 -0.0259123 -8.7827e-10 -4.87533e-10 4.2922e-10 -2.22167 -0.733487 0.20892 -2.03217e-16 0.0 -3.88251e-19 -10.8401 -20.2999 -1.89392 -0.297612 39.3888 1.01107 -7.69176 -12.3877 -22.4834 2.03217e-16 0.0 3.88251e-19 2.00473 -10.2728 5.78218 -0.0433509 27.0374 -0.568756 0.366793 -14.8185 1.18715
-118.784 81.6424 57.5226 -177.449 -2.6788 180.94 -2.1527 14.2151 3.85387 1.2638 -3.80075 0.924321 -2.96052 9.31705 3.4775 -11.1042 -1.66224 3.88476 -0.0 0.0 0.0 -0.0 0.0 0.0 5.84735e-14 -8.51775e-14 8.20857e-14 69.8125 -18.3532 -11.7842 -13.0479 -6.19763 23.6902 -0.0181181 3.75272 0.528236 4.90633e-10 -2.80018e-10 1.15654e-09 8.53623e-10 -4.8319e-10 1.99865e-09 4.90633e-10 -2.8001e-10 1.15652e-09 7.73091 5.47488 0.417314 4.90633e-10 -2.80013e-10 1.15654e-09 2.90554 0.965183 0.102902 4.90638e-10 -2.80015e-10 1.15654e-09 10.2786 0.731801 0.0259123 4.90632e-10 -2.80017e-10 1.15654e-09 2.22167 -0.733487 -0.20892 5.83536e-14 -8.51814e-14 8.18092e-14 -43.4312 -21.0693 1.48295 20.4156 -13.5455 -39.6909 0.785584 -24.4979 3.66675 -4.35836e-10 -2.85984e-10 3.81269e-10 -7.61216e-10 -4.95073e-10 6.55037e-10 -4.35851e-10 -2.85983e-10 3.8128e-10 -7.73091 5.47488 -0.417314 -4.3584e-10 -2.85985e-10 3.81267e-10 -2.90554 0.965183 -0.102902 -4.35844e-10 -2.85988e-10 3.81269e-10 -10.2786 0.731801 -0.0259123 -4.35832e-10 -2.85988e-10 3.81265e-10 -2.22167 -0.733487 0.20892 -2.03217e-16 0.0 -3.88251e-19 -10.8287 -20.9728 -1.50843 -0.331254 40.8111 1.00603 -6.64635 -11.4152 -20.4608 2.03217e-16 0.0 3.88251e-19 1.69114 -10.0694 5.65364 -0.050681 26.816 -0.563053 0.0934842 -14.7718 0.1761
